<?xml version="1.0" standalone="no"?>
<!DOCTYPE svg PUBLIC "-//W3C//DTD SVG 20010904//EN"
 "http://www.w3.org/TR/2001/REC-SVG-20010904/DTD/svg10.dtd">
<svg version="1.0" xmlns="http://www.w3.org/2000/svg"
 width="512.000000pt" height="512.000000pt" viewBox="0 0 512.000000 512.000000"
 preserveAspectRatio="xMidYMid meet">
<metadata>
Created by potrace 1.11, written by Peter Selinger 2001-2013
</metadata>
<g transform="translate(0.000000,512.000000) scale(0.100000,-0.100000)"
fill="#000000" stroke="none">
<path d="M2553 3910 c-3 -11 -16 -23 -29 -26 -21 -5 -37 -30 -39 -59 0 -5 -11
-9 -24 -7 -14 2 -21 0 -17 -7 4 -5 0 -13 -8 -18 -14 -8 -16 -12 -16 -33 0 -5
-10 -10 -22 -10 -12 0 -18 -3 -15 -7 10 -9 -20 -53 -60 -87 -18 -15 -30 -33
-26 -40 3 -6 3 -8 -2 -4 -4 4 -14 0 -22 -8 -8 -8 -19 -12 -24 -9 -8 6 -13 -9
-6 -19 4 -8 -36 -46 -50 -46 -12 0 -14 -5 -12 -27 0 -5 -10 -11 -23 -14 -13
-3 -22 -11 -20 -18 1 -6 -10 -23 -24 -36 -15 -14 -23 -25 -18 -25 5 -1 -2 -7
-16 -15 -14 -8 -22 -14 -19 -15 4 0 -31 -38 -76 -85 -45 -46 -80 -86 -78 -89
3 -2 -5 -7 -16 -11 -12 -3 -21 -11 -21 -16 0 -5 -19 -29 -42 -53 -24 -24 -64
-66 -91 -95 -26 -28 -52 -51 -58 -51 -5 0 -8 -3 -6 -7 3 -5 -12 -26 -34 -48
-21 -22 -39 -43 -39 -47 0 -5 -7 -8 -16 -8 -8 0 -13 -3 -11 -7 4 -8 -28 -43
-38 -43 -3 0 -10 0 -16 0 -5 0 -7 -4 -4 -10 3 -5 -10 -25 -30 -45 -20 -19 -34
-35 -32 -35 3 0 -8 -14 -25 -31 -17 -17 -37 -28 -45 -25 -8 3 -11 1 -8 -4 3
-6 1 -10 -5 -10 -6 0 -9 -4 -6 -9 3 -5 -6 -21 -19 -35 -14 -15 -25 -32 -25
-37 0 -6 -4 -7 -10 -4 -5 3 -10 3 -10 -2 0 -4 -31 -41 -70 -81 -38 -40 -70
-78 -70 -83 0 -6 -7 -8 -16 -5 -9 3 -14 1 -12 -5 3 -10 -99 -123 -114 -125 -4
-1 -13 -2 -19 -3 -6 0 -9 -8 -5 -16 3 -8 -2 -19 -12 -24 -9 -6 -14 -11 -9 -11
4 0 -19 -26 -50 -58 -32 -32 -79 -81 -104 -108 -25 -28 -51 -48 -58 -46 -10 3
-15 -10 -12 -30 0 -4 -11 -11 -25 -14 -16 -4 -23 -12 -20 -20 3 -7 -5 -20 -17
-29 -12 -8 -19 -15 -16 -15 3 0 -20 -26 -50 -57 -31 -32 -60 -57 -64 -55 -5 1
-6 -1 -4 -5 3 -5 -1 -17 -9 -28 -8 -10 -14 -16 -14 -12 0 4 -8 -1 -18 -10 -11
-10 -17 -22 -14 -27 3 -5 -2 -6 -12 -3 -10 4 -15 3 -11 -3 4 -6 -14 -30 -39
-55 -26 -24 -45 -50 -44 -57 3 -12 72 -88 190 -210 31 -32 55 -58 54 -58 -2 0
15 -19 38 -43 23 -24 46 -41 51 -39 6 3 7 1 2 -3 -4 -5 15 -31 42 -59 106
-108 181 -190 181 -198 0 -4 7 -8 17 -8 9 0 14 -3 10 -6 -3 -3 19 -30 49 -59
30 -30 54 -58 54 -64 0 -5 9 -13 21 -16 11 -4 18 -9 16 -11 -3 -3 9 -18 25
-35 l30 -29 1140 0 c1039 0 1141 2 1156 16 11 11 17 13 20 5 2 -6 9 -8 15 -4
16 10 107 10 107 0 0 -5 5 -5 12 -1 15 9 71 10 86 1 6 -4 13 -4 15 0 3 5 35 8
71 7 41 -1 67 3 69 11 3 6 22 10 43 9 22 -1 46 4 54 11 8 7 29 12 47 10 20 -1
34 4 37 12 3 8 11 13 18 12 24 -3 51 1 46 6 -3 3 32 44 78 90 45 47 81 85 78
85 -2 0 5 9 16 20 11 11 25 20 32 20 6 0 8 3 5 6 -3 4 20 33 53 65 32 33 58
59 56 59 -3 0 127 138 233 248 40 43 72 79 71 82 -2 3 7 9 19 15 11 5 21 15
21 22 0 7 5 13 10 13 18 0 11 30 -12 54 -21 22 -89 93 -307 326 -44 47 -109
116 -145 154 -36 38 -66 73 -66 78 0 4 -7 8 -17 8 -9 0 -14 3 -11 6 7 7 -44
60 -54 56 -5 -1 -8 2 -8 7 0 6 -13 24 -30 42 -16 18 -27 36 -25 40 3 4 -2 12
-10 19 -8 7 -15 9 -15 4 0 -5 -27 20 -60 54 -33 35 -60 68 -60 73 0 6 -4 7
-10 4 -5 -3 -10 1 -10 10 0 9 -4 13 -10 10 -5 -3 -10 -2 -10 3 0 4 -29 38 -64
75 -35 36 -61 68 -58 72 3 3 -2 5 -11 5 -9 0 -17 7 -17 16 0 8 -4 12 -10 9 -5
-3 -10 -1 -10 5 0 6 -24 35 -54 65 -30 29 -52 56 -49 59 4 3 -1 6 -10 6 -9 0
-17 4 -17 8 0 15 -37 52 -44 45 -3 -3 -6 -1 -6 6 0 7 -15 27 -32 44 -18 16
-32 34 -31 39 2 4 -4 8 -12 8 -8 0 -15 7 -15 15 0 8 -7 15 -15 15 -8 0 -15 4
-15 9 0 5 -35 46 -79 90 -43 45 -76 81 -74 81 2 0 -2 7 -11 15 -8 8 -19 15
-25 15 -6 0 -10 4 -8 8 1 5 -17 27 -40 49 -24 23 -43 47 -43 53 0 6 -4 8 -10
5 -5 -3 -10 -1 -10 5 0 6 -22 32 -50 59 -31 30 -50 57 -50 71 0 17 -4 21 -20
17 -11 -3 -20 -2 -20 2 0 3 -20 27 -44 53 -25 25 -42 49 -38 53 4 4 3 5 -3 3
-5 -1 -26 14 -45 35 -19 21 -46 49 -59 62 -14 14 -21 29 -18 39 5 12 0 16 -16
16 -20 0 -50 31 -52 55 -1 6 -6 9 -13 7 -7 -1 -15 5 -18 13 -4 8 -12 15 -20
15 -8 0 -13 3 -13 8 4 21 -2 42 -10 37 -5 -3 -21 6 -35 20 -31 30 -66 33 -73
5z m-46 -1385 c-1 -871 1 -847 -47 -846 -11 1 -28 1 -37 1 -10 1 -33 -1 -51
-3 -18 -3 -35 0 -38 4 -3 5 -13 5 -23 0 -10 -6 -23 -6 -31 -1 -8 5 -21 5 -30
0 -9 -5 -22 -5 -30 0 -8 5 -21 5 -30 0 -9 -5 -22 -5 -30 0 -8 5 -18 6 -23 3
-16 -10 -77 -8 -77 2 0 6 -3 6 -8 -1 -4 -5 -23 -9 -42 -7 -49 4 -50 4 -97 0
-24 -2 -43 0 -43 5 0 4 -11 3 -25 -2 -18 -7 -25 -6 -25 3 0 8 -3 8 -8 1 -8
-12 -61 -12 -79 -1 -8 5 -13 3 -13 -3 0 -6 -5 -8 -10 -5 -6 4 -8 10 -5 15 3 5
0 12 -5 15 -8 5 -7 12 3 23 8 10 17 30 21 45 4 15 11 25 17 22 6 -4 8 3 5 18
-3 17 1 27 10 31 9 3 13 10 10 15 -3 5 1 14 9 21 8 7 12 16 9 21 -3 5 1 12 9
15 8 3 14 13 13 22 -2 9 3 23 11 30 7 8 11 17 8 22 -3 5 -1 10 5 12 6 2 12 14
15 27 2 14 10 28 16 32 6 4 9 11 5 17 -3 5 1 13 10 16 8 3 13 10 10 15 -4 5
-1 15 6 23 7 7 15 22 16 33 2 11 9 23 14 26 6 4 7 12 4 18 -4 6 0 14 8 17 9 3
16 14 16 24 0 11 5 22 10 25 6 4 8 11 5 16 -4 5 1 12 9 15 9 3 13 10 10 15 -3
5 -1 9 5 9 6 0 8 7 5 15 -4 8 -1 15 5 15 6 0 11 12 11 26 0 14 4 23 9 20 5 -3
11 8 15 25 4 20 10 28 18 23 8 -5 9 -2 4 11 -4 10 -2 21 4 25 6 4 12 14 14 22
1 9 8 23 15 32 7 9 11 16 7 16 -4 0 0 10 8 23 7 12 12 30 11 40 -2 9 5 22 16
28 11 5 17 14 14 20 -4 5 -1 9 6 9 7 0 9 3 6 7 -4 3 0 14 9 24 9 10 14 25 10
34 -3 9 4 26 15 39 12 13 19 26 18 29 -2 3 4 14 14 25 11 12 16 26 12 31 -3 6
-2 11 2 11 10 0 43 69 43 88 0 7 7 12 15 12 9 0 12 6 9 15 -3 8 1 22 10 31 9
8 14 19 11 24 -3 4 2 13 10 20 8 7 12 17 9 22 -4 6 -2 13 4 17 6 3 13 18 15
31 8 40 18 60 28 54 5 -3 9 -2 10 3 2 26 9 47 16 52 4 3 10 17 11 31 2 14 9
31 14 38 6 7 8 15 5 18 -3 3 2 14 11 23 16 16 18 16 33 1 14 -14 16 -99 16
-835z m213 835 c9 -8 16 -25 15 -37 -1 -13 4 -28 12 -35 8 -6 12 -17 9 -24 -3
-7 -1 -14 4 -16 5 -2 10 -10 12 -18 2 -8 9 -21 16 -28 7 -8 10 -17 7 -22 -3
-4 2 -13 10 -20 8 -7 15 -20 15 -29 0 -9 9 -22 21 -29 11 -7 18 -19 15 -27 -3
-8 -1 -17 5 -20 5 -4 7 -10 4 -15 -3 -5 4 -18 15 -28 12 -11 22 -29 23 -40 0
-11 5 -18 9 -16 7 5 12 -16 9 -42 0 -5 8 -20 20 -33 12 -12 22 -28 23 -36 1
-7 7 -19 12 -26 6 -8 11 -25 12 -38 0 -13 10 -30 22 -38 13 -9 19 -22 16 -38
-3 -15 4 -30 19 -45 12 -11 23 -32 23 -45 0 -13 9 -33 21 -46 11 -13 21 -35
21 -51 0 -15 5 -28 10 -28 6 0 10 -8 10 -18 0 -10 9 -24 20 -32 11 -8 20 -26
20 -40 0 -15 9 -36 20 -48 11 -12 20 -30 20 -42 0 -11 6 -19 13 -17 7 1 11 -7
9 -20 -2 -15 2 -23 12 -23 9 0 13 -7 11 -19 -2 -11 3 -22 11 -25 9 -3 12 -11
9 -16 -4 -6 -1 -18 7 -27 7 -9 13 -24 13 -33 0 -9 6 -24 13 -33 8 -9 11 -21 7
-27 -3 -5 1 -13 10 -16 9 -4 14 -12 11 -20 -3 -7 2 -18 9 -24 8 -7 13 -16 10
-20 -3 -4 2 -13 11 -20 8 -7 13 -19 10 -25 -2 -7 4 -18 14 -25 10 -7 15 -20
13 -31 -3 -11 0 -19 6 -19 6 0 11 -9 11 -20 0 -11 5 -20 11 -20 5 0 7 -4 4
-10 -3 -5 -1 -10 5 -10 6 0 8 -4 5 -10 -3 -5 -1 -10 5 -10 16 0 38 -57 32 -85
-3 -16 -12 -24 -33 -27 -17 -3 -29 0 -29 6 0 8 -2 8 -8 0 -4 -5 -23 -9 -42 -7
-34 3 -44 3 -75 3 -8 0 -22 0 -30 0 -8 0 -31 0 -50 0 -19 0 -42 0 -50 0 -8 0
-22 0 -30 0 -8 0 -21 0 -27 0 -7 1 -30 -1 -50 -2 -21 -2 -38 1 -38 7 0 6 -3 6
-8 -1 -4 -5 -23 -9 -42 -7 -49 4 -50 4 -97 0 -24 -2 -43 0 -43 5 0 4 -11 3
-25 -2 -18 -7 -25 -6 -25 3 0 8 -3 8 -8 2 -11 -16 -58 -12 -78 7 -18 16 -19
49 -18 850 1 458 2 834 3 836 3 6 26 -4 41 -18z m-460 -59 c0 -5 -5 -11 -11
-13 -5 -2 -11 -10 -13 -18 -5 -25 -18 -54 -32 -70 -12 -15 -14 -19 -14 -41 0
-5 -5 -7 -12 -3 -7 4 -8 3 -4 -4 4 -6 1 -22 -6 -34 -7 -13 -11 -29 -9 -37 1
-7 -2 -10 -8 -7 -5 3 -12 -7 -16 -24 -4 -16 -10 -30 -15 -30 -5 0 -7 -9 -5
-20 3 -13 -2 -20 -12 -20 -9 0 -13 -6 -10 -14 3 -8 -1 -20 -8 -26 -8 -7 -13
-16 -10 -20 3 -5 -1 -15 -9 -23 -8 -8 -12 -17 -9 -21 4 -3 1 -6 -6 -6 -7 0
-10 -4 -6 -9 3 -5 1 -12 -5 -16 -5 -3 -10 -15 -10 -26 0 -10 -3 -19 -8 -19 -4
0 -13 -15 -20 -32 -8 -18 -22 -50 -33 -71 -10 -22 -19 -45 -19 -52 0 -7 -5
-15 -10 -17 -6 -2 -12 -13 -13 -25 0 -13 -7 -25 -14 -27 -7 -3 -10 -12 -7 -21
4 -9 0 -15 -9 -15 -10 0 -15 -7 -12 -20 2 -11 0 -20 -4 -20 -5 0 -12 -10 -16
-22 -4 -13 -8 -26 -10 -30 -4 -13 -5 -18 -4 -24 0 -3 -10 -14 -22 -25 -12 -10
-17 -19 -10 -19 8 0 7 -6 -4 -16 -9 -9 -14 -23 -11 -30 3 -8 -1 -14 -10 -14
-8 0 -12 -5 -9 -11 4 -5 0 -18 -8 -27 -15 -17 -17 -21 -17 -43 0 -5 -4 -8 -9
-5 -5 4 -8 -2 -7 -11 2 -10 -1 -21 -6 -24 -8 -5 -15 -25 -17 -52 -1 -5 -5 -6
-9 -3 -5 3 -9 0 -10 -7 -2 -25 -29 -87 -35 -80 -4 3 -7 -1 -7 -11 0 -9 -7 -28
-16 -41 -9 -14 -13 -25 -9 -25 5 0 0 -9 -10 -20 -10 -11 -14 -20 -10 -20 4 0
1 -8 -8 -18 -10 -10 -14 -22 -10 -25 3 -4 -2 -13 -12 -21 -10 -7 -15 -18 -12
-23 4 -6 0 -16 -8 -23 -8 -7 -12 -16 -9 -21 3 -5 -2 -12 -11 -15 -9 -4 -14
-13 -11 -20 3 -7 -1 -20 -9 -28 -8 -8 -15 -22 -15 -30 0 -9 -5 -16 -11 -16 -5
0 -7 -4 -4 -10 3 -5 0 -10 -7 -11 -76 -4 -111 -3 -115 3 -2 5 -12 4 -22 -1 -9
-5 -23 -6 -31 -1 -7 4 -18 6 -24 4 -25 -9 -77 -11 -82 -3 -3 5 -13 5 -23 0 -9
-5 -23 -6 -31 -1 -7 4 -18 6 -24 4 -25 -9 -77 -11 -82 -3 -3 5 -13 5 -23 0
-10 -6 -23 -6 -31 -1 -8 5 -21 5 -30 0 -9 -5 -22 -5 -30 0 -8 5 -21 5 -30 0
-9 -5 -22 -5 -30 0 -8 5 -21 5 -29 0 -8 -4 -25 -4 -38 1 -13 5 -23 5 -23 0 0
-10 -40 -8 -58 2 -9 7 -10 13 0 30 7 12 12 25 13 29 0 9 15 23 24 23 12 0 40
32 34 39 -4 3 -1 6 6 6 7 0 9 5 6 10 -6 9 7 14 27 11 12 -1 38 55 30 64 -4 5
-2 5 4 2 6 -4 22 3 36 16 24 22 28 29 28 48 0 5 4 8 10 4 8 -5 50 28 50 40 0
3 0 10 0 15 0 6 7 10 16 10 17 0 45 24 43 37 -4 23 3 31 22 28 15 -3 19 0 15
10 -3 8 0 14 7 12 7 -1 12 6 12 16 0 19 24 39 37 31 5 -3 15 11 24 31 8 20 18
33 23 30 5 -2 11 2 15 10 3 8 12 15 21 15 8 0 14 3 14 8 -3 19 2 42 9 40 19
-6 51 23 47 43 -3 17 0 20 14 16 15 -4 61 31 53 41 -9 10 1 33 12 29 18 -7 49
31 41 51 -3 9 -3 13 1 9 12 -11 62 25 69 50 3 13 11 23 18 23 19 0 107 99 107
120 0 10 7 17 18 16 9 0 17 3 17 7 0 5 8 13 17 18 11 6 15 16 11 26 -4 10 -2
14 4 10 5 -3 19 2 30 13 12 10 23 16 26 13 4 -3 4 6 1 21 -3 20 -1 24 11 20 8
-4 17 1 21 10 3 9 10 13 15 10 9 -5 13 9 10 34 -1 6 7 12 18 12 21 0 54 37 45
52 -5 7 3 10 22 7 12 -1 44 46 40 58 -3 8 2 13 14 13 10 0 25 9 33 20 8 11 16
17 20 14 3 -3 3 3 0 15 -4 15 -1 21 12 21 21 0 42 20 47 46 2 10 8 19 13 19
20 0 52 31 49 48 -1 9 2 18 7 18 19 3 25 5 44 16 11 7 17 13 12 13 -4 0 -1 13
7 28 10 20 23 28 45 30 17 1 31 -2 31 -7z m703 -6 c8 -8 17 -11 21 -8 3 4 6 1
6 -5 0 -6 23 -35 50 -64 28 -29 50 -57 50 -61 0 -5 5 -5 10 -2 6 3 10 1 10 -5
0 -6 23 -33 50 -60 28 -27 50 -53 50 -59 0 -6 6 -11 14 -11 7 0 21 -12 31 -26
9 -14 41 -50 71 -80 30 -31 52 -60 48 -65 -3 -5 -1 -8 4 -7 12 4 92 -76 92
-91 0 -7 3 -10 8 -8 4 2 21 -11 39 -30 17 -18 30 -33 28 -33 -2 0 28 -31 66
-70 37 -38 66 -70 64 -70 -2 0 7 -11 21 -25 14 -14 30 -25 36 -25 6 0 9 -3 5
-6 -3 -3 13 -25 36 -48 23 -24 94 -98 157 -166 169 -181 238 -254 303 -321 31
-33 57 -63 57 -69 0 -5 9 -12 20 -15 11 -3 20 -11 20 -16 0 -12 60 -75 60 -63
1 5 8 -3 16 -18 8 -16 19 -28 24 -28 5 0 14 -9 20 -19 13 -25 -17 -62 -31 -39
-7 11 -9 11 -9 -1 0 -9 -6 -11 -17 -6 -10 4 -22 7 -28 6 -66 -6 -95 -6 -95 1
0 4 -11 3 -25 -2 -18 -7 -25 -6 -25 3 0 8 -3 8 -8 2 -9 -14 -65 -14 -74 0 -5
7 -8 6 -8 -1 0 -7 -15 -10 -37 -8 -49 5 -50 5 -100 1 -24 -2 -43 0 -43 5 0 4
-11 3 -25 -2 -18 -7 -25 -6 -25 3 0 8 -3 8 -8 1 -4 -5 -23 -9 -42 -7 -34 3
-44 3 -75 3 -8 0 -21 0 -27 1 -7 0 -23 -2 -36 -5 -13 -3 -20 -1 -17 5 4 5 -1
12 -9 15 -9 3 -16 15 -16 25 0 10 -4 19 -10 19 -5 0 -10 9 -10 19 0 11 -4 23
-10 26 -5 3 -10 13 -10 21 0 9 -7 22 -15 30 -8 8 -12 21 -9 29 4 10 0 15 -11
15 -9 0 -13 4 -10 10 3 5 -2 21 -11 35 -9 14 -12 25 -8 25 5 0 0 7 -10 15 -11
8 -16 15 -12 15 5 0 1 12 -9 26 -9 14 -14 28 -11 31 3 3 -2 12 -10 20 -8 8
-12 19 -9 24 4 5 2 9 -3 9 -9 0 -35 53 -36 75 -1 6 -5 13 -10 17 -5 3 -11 15
-12 25 -2 9 -8 19 -14 21 -5 2 -8 8 -4 13 3 5 0 9 -6 9 -6 0 -9 4 -5 9 3 5 0
13 -6 16 -5 4 -8 13 -5 21 3 8 -1 14 -10 14 -11 0 -15 6 -11 20 3 11 1 20 -4
20 -10 0 -43 70 -40 86 1 7 -5 14 -14 17 -8 4 -12 13 -9 20 3 8 -2 17 -11 21
-9 3 -13 11 -10 17 4 5 0 18 -8 27 -9 9 -16 19 -16 22 -1 20 -25 70 -33 70 -6
0 -8 6 -5 14 3 8 0 19 -7 25 -8 6 -13 22 -13 35 0 13 -10 35 -22 47 -12 13
-21 34 -19 46 2 12 -1 23 -7 24 -15 3 -34 32 -35 52 0 9 -4 17 -10 17 -5 0
-10 9 -10 20 0 11 -7 23 -16 27 -12 4 -12 8 -3 13 8 6 6 12 -8 25 -13 11 -19
25 -15 37 3 12 0 18 -9 16 -9 -2 -13 5 -11 20 2 15 -2 22 -13 22 -9 0 -14 4
-11 9 3 5 -1 21 -9 37 -7 15 -11 32 -8 37 3 6 2 7 -4 4 -9 -6 -41 69 -35 86 1
4 -3 6 -10 5 -7 -2 -13 3 -14 10 -1 6 -2 17 -3 23 0 5 -5 8 -9 5 -5 -3 -9 1
-9 9 0 19 21 19 40 0z m-2103 -1794 c0 8 4 8 13 1 8 -7 18 -7 27 -2 9 5 19 5
27 -2 8 -6 13 -7 13 -1 0 7 15 8 40 3 22 -4 40 -3 40 2 0 5 9 4 20 -2 11 -6
20 -7 20 -2 0 4 27 5 60 2 33 -3 60 -2 60 2 0 5 9 4 20 -2 11 -6 20 -7 20 -2
0 4 27 5 60 2 33 -3 60 -2 60 2 0 5 9 4 20 -2 11 -6 20 -7 20 -2 0 4 27 5 60
2 33 -3 60 -2 60 2 0 5 9 4 20 -2 11 -6 20 -7 20 -2 0 5 18 6 40 2 22 -4 40
-4 40 0 0 10 30 8 31 -2 1 -4 2 -14 3 -20 1 -7 -17 -32 -41 -55 -23 -24 -41
-43 -39 -43 2 0 -28 -33 -67 -73 -40 -40 -83 -87 -97 -104 -13 -18 -28 -29
-32 -27 -4 3 -8 0 -8 -6 0 -6 -24 -35 -54 -65 -30 -30 -65 -67 -77 -82 -24
-28 -80 -42 -76 -19 1 6 -4 10 -10 8 -7 -1 -13 2 -13 8 0 5 -27 37 -60 72 -33
35 -84 88 -113 118 -28 30 -64 69 -78 87 -15 18 -30 29 -33 26 -3 -4 -6 1 -6
10 0 9 -8 17 -17 17 -9 0 -14 3 -10 6 3 4 -12 24 -33 44 -22 21 -40 43 -40 49
0 6 -5 10 -11 9 -6 -2 -13 8 -14 20 -2 22 1 24 47 20 26 -1 48 1 48 5 0 4 9 3
20 -3 15 -8 20 -8 20 1z m1383 -4 c31 -1 57 2 57 6 0 4 9 3 20 -3 11 -6 20 -7
20 -2 0 4 27 5 60 2 33 -3 60 -2 60 2 0 5 9 4 20 -2 11 -6 20 -7 20 -3 0 4 45
6 100 3 55 -3 100 -1 100 3 0 4 9 3 20 -3 11 -6 20 -7 20 -3 0 4 63 6 140 3
77 -3 140 -2 140 1 0 3 11 4 25 2 23 -5 23 -6 8 -29 -8 -13 -13 -24 -9 -24 3
0 -2 -9 -11 -20 -10 -11 -26 -20 -36 -20 -10 0 -17 -6 -16 -12 3 -27 -2 -36
-18 -34 -10 0 -18 -5 -18 -13 0 -8 -24 -39 -52 -69 -29 -30 -53 -58 -53 -64 0
-5 -4 -6 -10 -3 -5 3 -10 2 -10 -3 0 -13 -91 -107 -103 -107 -5 0 -15 -9 -21
-20 -6 -11 -15 -23 -21 -27 -5 -4 -7 -8 -3 -8 4 0 -5 -12 -20 -28 -19 -20 -36
-27 -60 -27 -27 1 -46 16 -121 93 -48 51 -87 92 -85 92 2 0 -26 29 -62 65 -35
36 -64 70 -64 76 0 5 -3 9 -7 7 -5 -2 -20 9 -35 24 -15 15 -25 28 -22 28 3 0
-16 21 -41 46 -48 49 -53 70 -16 68 11 0 21 3 21 7 0 5 6 6 13 3 7 -2 39 -6
70 -7z m1457 0 c0 4 36 6 80 3 44 -3 80 -1 80 3 0 4 9 3 20 -3 15 -8 20 -8 20
1 0 8 4 8 13 1 8 -7 18 -7 27 -2 9 5 19 5 27 -2 7 -6 13 -7 13 -2 0 5 36 7 80
4 44 -3 80 -1 80 3 0 4 9 3 20 -3 11 -6 20 -7 20 -3 0 4 36 6 80 3 44 -3 80
-1 80 3 0 4 9 3 20 -3 15 -8 20 -8 20 1 0 8 4 8 13 1 8 -7 18 -7 27 -2 21 14
27 12 34 -7 5 -11 1 -22 -10 -30 -10 -7 -14 -13 -9 -13 5 0 -12 -21 -38 -46
-26 -25 -47 -49 -47 -54 0 -5 -9 -12 -21 -15 -11 -4 -18 -9 -16 -12 3 -3 -26
-36 -64 -74 -38 -39 -69 -72 -69 -75 0 -12 -89 -92 -95 -86 -4 4 -6 3 -5 -3 5
-21 0 -36 -10 -30 -5 3 -10 3 -10 -2 0 -4 -10 -19 -21 -33 -11 -14 -18 -18
-14 -10 5 13 4 13 -7 0 -14 -16 -62 -25 -53 -10 3 5 -3 11 -13 14 -11 4 -24
18 -31 32 -6 14 -16 22 -21 19 -6 -3 -10 -1 -10 5 0 7 -13 24 -30 40 -16 15
-26 30 -23 34 3 3 -1 6 -10 6 -9 0 -17 6 -17 14 0 8 -9 18 -20 21 -11 3 -20
11 -20 16 0 15 -26 39 -34 32 -3 -4 -6 -1 -6 5 0 6 -22 35 -50 64 -27 29 -50
56 -50 60 0 4 -7 8 -17 8 -9 0 -14 3 -10 6 3 4 -12 24 -34 45 -22 21 -42 48
-44 60 -4 20 -1 20 65 17 39 -2 70 1 70 5 0 4 9 3 20 -3 11 -6 20 -7 20 -3z
m-1797 -55 c-2 -6 4 -9 12 -6 11 5 13 2 9 -10 -4 -9 -2 -16 3 -14 12 4 64 -48
56 -56 -4 -3 1 -6 10 -6 8 0 19 -9 22 -20 3 -11 14 -20 22 -20 9 0 14 -3 11
-6 -8 -7 34 -50 44 -47 5 2 7 -1 5 -5 -2 -9 30 -45 136 -152 37 -38 67 -71 67
-75 0 -3 14 -18 30 -32 27 -22 41 -62 23 -64 -5 0 -210 -1 -457 -2 -411 -2
-450 -1 -469 15 -19 17 -19 18 16 52 20 19 33 37 30 40 -4 3 2 6 12 6 10 0 16
2 13 5 -3 3 19 30 48 60 30 30 54 59 54 65 0 6 4 9 8 6 5 -3 15 4 23 15 8 12
46 54 84 94 39 40 90 95 115 123 40 44 79 62 73 34z m1413 -9 c5 3 23 -10 39
-28 17 -19 67 -73 113 -120 45 -46 82 -90 82 -95 0 -6 3 -9 8 -7 4 2 17 -7 29
-20 12 -13 20 -23 18 -23 -3 0 18 -24 46 -52 133 -138 123 -124 105 -144 -15
-18 -37 -19 -444 -17 -565 2 -505 -1 -492 24 7 11 27 37 46 57 19 20 34 40 34
45 0 4 5 5 10 2 6 -3 10 -2 10 4 0 5 29 39 64 75 35 36 61 68 58 71 -3 3 2 5
11 5 10 0 17 5 17 11 0 15 26 39 34 32 3 -4 6 0 6 9 0 17 33 51 43 43 4 -3 5
-2 2 2 -2 3 7 17 21 30 14 12 22 23 18 23 -4 0 10 14 31 30 21 17 34 30 30 30
-5 0 0 9 10 20 16 18 19 18 30 3 7 -9 16 -14 21 -10z"/>
</g>
</svg>
